<?xml version="1.0" encoding="UTF-8" standalone="no"?>
<svg
   xmlns:dc="http://purl.org/dc/elements/1.1/"
   xmlns:cc="http://creativecommons.org/ns#"
   xmlns:rdf="http://www.w3.org/1999/02/22-rdf-syntax-ns#"
   xmlns:svg="http://www.w3.org/2000/svg"
   xmlns="http://www.w3.org/2000/svg"
   xmlns:xlink="http://www.w3.org/1999/xlink"
   xmlns:sodipodi="http://sodipodi.sourceforge.net/DTD/sodipodi-0.dtd"
   xmlns:inkscape="http://www.inkscape.org/namespaces/inkscape"
   width="22.210028mm"
   height="8.6576796mm"
   viewBox="0 0 22.210028 8.6576796"
   version="1.1"
   id="svg1435"
   inkscape:version="1.0.1 (3bc2e813f5, 2020-09-07)"
   sodipodi:docname="r-bioc-logo.svg">
  <defs
     id="defs1429">
    <linearGradient
       inkscape:collect="always"
       xlink:href="#gradientFill-1"
       id="linearGradient1403"
       gradientUnits="userSpaceOnUse"
       gradientTransform="matrix(0.0190253,0,0,0.01274178,107.80873,208.9229)"
       x1="0.7414425"
       y1="3.6658268"
       x2="590.86261"
       y2="593.78699"
       spreadMethod="pad" />
    <linearGradient
       gradientTransform="matrix(0.0190253,0,0,0.01274178,107.80873,208.9229)"
       id="gradientFill-1"
       x1="0.7414425"
       x2="590.86261"
       y1="3.6658268"
       y2="593.78699"
       gradientUnits="userSpaceOnUse"
       spreadMethod="pad">
      <stop
         offset="0"
         stop-color="rgb(203,206,208)"
         stop-opacity="1"
         id="stop10487" />
      <stop
         offset="1"
         stop-color="rgb(132,131,139)"
         stop-opacity="1"
         id="stop10489" />
    </linearGradient>
    <linearGradient
       inkscape:collect="always"
       xlink:href="#gradientFill-2"
       id="linearGradient1405"
       gradientUnits="userSpaceOnUse"
       gradientTransform="matrix(0.01541321,0,0,0.01572782,107.80873,208.9229)"
       x1="301.02603"
       y1="151.4006"
       x2="703.0675"
       y2="553.44208"
       spreadMethod="pad" />
    <linearGradient
       gradientTransform="matrix(0.01541321,0,0,0.01572782,107.80873,208.9229)"
       id="gradientFill-2"
       x1="301.02603"
       x2="703.0675"
       y1="151.4006"
       y2="553.44208"
       gradientUnits="userSpaceOnUse"
       spreadMethod="pad">
      <stop
         offset="0"
         stop-color="rgb(39,109,195)"
         stop-opacity="1"
         id="stop10492" />
      <stop
         offset="1"
         stop-color="rgb(22,92,170)"
         stop-opacity="1"
         id="stop10494" />
    </linearGradient>
  </defs>
  <sodipodi:namedview
     id="base"
     pagecolor="#ffffff"
     bordercolor="#666666"
     borderopacity="1.0"
     inkscape:pageopacity="0.0"
     inkscape:pageshadow="2"
     inkscape:zoom="1.979899"
     inkscape:cx="124.82884"
     inkscape:cy="-20.781889"
     inkscape:document-units="mm"
     inkscape:current-layer="layer1"
     inkscape:document-rotation="0"
     showgrid="false"
     inkscape:window-width="2558"
     inkscape:window-height="1419"
     inkscape:window-x="0"
     inkscape:window-y="19"
     inkscape:window-maximized="0"
     fit-margin-top="0"
     fit-margin-left="0"
     fit-margin-right="0"
     fit-margin-bottom="0" />
  <metadata
     id="metadata1432">
    <rdf:RDF>
      <cc:Work
         rdf:about="">
        <dc:format>image/svg+xml</dc:format>
        <dc:type
           rdf:resource="http://purl.org/dc/dcmitype/StillImage" />
        <dc:title></dc:title>
      </cc:Work>
    </rdf:RDF>
  </metadata>
  <g
     inkscape:label="Layer 1"
     inkscape:groupmode="layer"
     id="layer1"
     transform="translate(-72.805703,-153.66521)">
    <g
       id="g2036"
       transform="translate(47.625002)">
      <g
         inkscape:export-ydpi="199.93279"
         inkscape:export-xdpi="199.93279"
         inkscape:export-filename="/home/denes/Dokumentumok/omnipath2/figures/fig1_03.png"
         transform="translate(-82.642139,-55.304392)"
         id="g958-3">
        <path
           inkscape:connector-curvature="0"
           style="fill:url(#linearGradient1403);fill-rule:evenodd;stroke-width:0.0155697"
           d="m 113.43645,216.4888 c -3.1003,0 -5.61361,-1.68323 -5.61361,-3.75959 0,-2.07638 2.51331,-3.75961 5.61361,-3.75961 3.10032,0 5.61362,1.68323 5.61362,3.75961 0,2.07636 -2.5133,3.75959 -5.61362,3.75959 z m 0.85927,-6.04932 c -2.35651,0 -4.26684,1.15073 -4.26684,2.57022 0,1.41949 1.91033,2.57022 4.26684,2.57022 2.35649,0 4.09555,-0.78672 4.09555,-2.57022 0,-1.78294 -1.73906,-2.57022 -4.09555,-2.57022 z"
           id="path10499-5" />
        <path
           inkscape:connector-curvature="0"
           style="fill:url(#linearGradient1405);fill-rule:evenodd;stroke-width:0.0155697"
           d="m 116.37208,214.79268 c 0,0 0.33976,0.10253 0.53715,0.20241 0.0685,0.0346 0.187,0.10381 0.27248,0.19462 0.0837,0.0889 0.12455,0.17905 0.12455,0.17905 l 1.339,2.25761 -2.16419,9.1e-4 -1.01203,-1.90047 c 0,0 -0.20724,-0.35607 -0.33475,-0.45931 -0.10638,-0.0861 -0.15173,-0.11677 -0.2569,-0.11677 -0.0732,0 -0.51421,0 -0.51421,0 l 4.1e-4,2.47518 -1.91508,9.1e-4 v -6.32268 h 3.84572 c 0,0 1.75159,0.0316 1.75159,1.69806 0,1.66648 -1.67374,1.79052 -1.67374,1.79052 z m -0.83298,-2.11711 -1.15937,-9.1e-4 -4.5e-4,1.0751 1.15994,-3.6e-4 c 0,0 0.53716,-0.002 0.53716,-0.54688 0,-0.55619 -0.53716,-0.52709 -0.53716,-0.52709 z"
           id="path10501-6" />
      </g>
      <g
         inkscape:export-ydpi="199.93279"
         inkscape:export-xdpi="199.93279"
         inkscape:export-filename="/home/denes/Dokumentumok/omnipath2/figures/fig1_03.png"
         id="g89-2"
         transform="matrix(0.14182128,0,0,-0.14182128,33.690774,165.63589)">
        <path
           inkscape:connector-curvature="0"
           id="path57-9"
           style="fill:#3792ad;fill-opacity:1;fill-rule:nonzero;stroke:none"
           d="m 79.9209,69.6963 c -0.646,0.021 -1.274,-0.337 -1.563,-0.961 -0.387,-0.831 -0.025,-1.819 0.806,-2.205 0.833,-0.387 1.82,-0.024 2.205,0.808 0.386,0.832 0.024,1.819 -0.807,2.205 -0.208,0.096 -0.425,0.146 -0.641,0.153 m -4.069,1.001 c -0.085,0.008 -0.171,0.007 -0.259,-0.002 -0.701,-0.076 -1.207,-0.707 -1.131,-1.408 0.077,-0.702 0.707,-1.208 1.409,-1.131 0.701,0.077 1.207,0.707 1.13,1.409 -0.066,0.612 -0.558,1.076 -1.149,1.132 m 8.924,0.834 c -0.126,0.011 -0.256,0.011 -0.388,-0.003 -1.051,-0.116 -1.811,-1.062 -1.696,-2.114 0.115,-1.051 1.061,-1.812 2.114,-1.696 1.051,0.116 1.81,1.062 1.695,2.113 -0.101,0.92 -0.838,1.617 -1.725,1.7 m -12.444,0.848 c -0.067,0.005 -0.137,0.005 -0.207,-0.002 -0.56,-0.062 -0.967,-0.568 -0.906,-1.127 0.062,-0.561 0.567,-0.965 1.127,-0.905 0.562,0.063 0.966,0.566 0.905,1.126 -0.054,0.493 -0.446,0.863 -0.919,0.908 m -24.089,0.579 c 0,0 0.225,-37.069 0.016,-36.951 -1.071,0.599 -1.991,0.66 -2.908,0.62 -3.775,-0.151 -8.381,-3.541 -8.511,-7.92 -0.045,-1.821 0.176,-3.542 1.578,-4.575 0.877,-0.64 1.975,-0.687 3.071,-0.687 3.641,0 8.425,3.638 8.512,7.917 v 40.194 z m 21.078,1.737 c -0.051,0.005 -0.102,0.004 -0.155,-0.002 -0.42,-0.046 -0.724,-0.424 -0.679,-0.845 0.047,-0.42 0.425,-0.724 0.845,-0.678 0.422,0.046 0.725,0.426 0.679,0.845 -0.04,0.368 -0.335,0.647 -0.69,0.68 m 19.482,1.881 c -0.148,0.014 -0.299,0.013 -0.452,-0.005 -1.224,-0.133 -2.108,-1.235 -1.974,-2.459 0.134,-1.225 1.235,-2.108 2.46,-1.975 1.225,0.134 2.109,1.236 1.975,2.46 -0.118,1.072 -0.976,1.883 -2.009,1.979 m -38.583,2.861 c -0.131,0.012 -0.264,0.011 -0.399,-0.004 -1.083,-0.118 -1.868,-1.093 -1.749,-2.177 0.119,-1.082 1.094,-1.864 2.178,-1.748 1.084,0.122 1.866,1.095 1.747,2.179 -0.104,0.949 -0.864,1.665 -1.777,1.75 m 11.745,1.002 c -0.067,0.006 -0.135,0.006 -0.205,-0.002 -0.557,-0.061 -0.96,-0.562 -0.899,-1.118 0.061,-0.558 0.562,-0.96 1.12,-0.899 0.557,0.061 0.959,0.563 0.897,1.12 -0.054,0.488 -0.443,0.856 -0.913,0.899 m 29.439,0.482 c -0.119,0.011 -0.24,0.01 -0.363,-0.003 -0.986,-0.108 -1.699,-0.996 -1.592,-1.982 0.108,-0.986 0.995,-1.698 1.982,-1.59 0.986,0.108 1.698,0.995 1.591,1.981 -0.095,0.863 -0.786,1.515 -1.618,1.594 m -37.27,1.385 c -0.114,0.011 -0.23,0.01 -0.348,-0.003 -0.947,-0.104 -1.63,-0.955 -1.527,-1.901 0.103,-0.946 0.955,-1.631 1.902,-1.527 0.946,0.104 1.629,0.956 1.526,1.902 -0.09,0.828 -0.755,1.455 -1.553,1.529 m 4.413,0.465 c -0.101,0.008 -0.205,0.008 -0.311,-0.002 -0.841,-0.093 -1.449,-0.849 -1.357,-1.69 0.092,-0.841 0.849,-1.449 1.691,-1.357 0.841,0.093 1.45,0.849 1.357,1.69 -0.08,0.737 -0.67,1.293 -1.38,1.359 m 34.955,1.215 c -0.464,0.016 -0.914,-0.242 -1.122,-0.689 -0.277,-0.597 -0.017,-1.305 0.581,-1.582 0.596,-0.276 1.304,-0.016 1.581,0.58 0.276,0.597 0.016,1.303 -0.581,1.58 -0.149,0.07 -0.304,0.106 -0.459,0.111" />
        <path
           inkscape:connector-curvature="0"
           id="path61-1"
           style="fill:#68981c;fill-opacity:1;fill-rule:nonzero;stroke:none"
           d="m 95.4414,71.8525 c -0.085,0.008 -0.171,0.008 -0.258,-0.002 -0.701,-0.077 -1.208,-0.708 -1.132,-1.409 0.077,-0.701 0.708,-1.208 1.409,-1.131 0.702,0.076 1.209,0.707 1.132,1.409 -0.067,0.612 -0.559,1.078 -1.151,1.133 m -39.546,0.3 c -0.098,0.01 -0.198,0.008 -0.3,-0.003 -0.812,-0.089 -1.4,-0.819 -1.31,-1.632 0.088,-0.812 0.819,-1.401 1.632,-1.311 0.814,0.088 1.4,0.82 1.311,1.633 -0.077,0.71 -0.647,1.249 -1.333,1.313 m 36.296,0.371 c -0.06,0.005 -0.119,0.005 -0.18,-0.001 -0.491,-0.054 -0.846,-0.496 -0.793,-0.987 0.055,-0.49 0.494,-0.845 0.985,-0.792 0.492,0.055 0.847,0.496 0.793,0.986 -0.046,0.43 -0.391,0.755 -0.805,0.794 m -31.464,1.405 c -0.135,0.012 -0.273,0.011 -0.413,-0.005 -1.121,-0.122 -1.932,-1.131 -1.809,-2.253 0.122,-1.121 1.131,-1.93 2.253,-1.807 1.122,0.122 1.931,1.13 1.809,2.252 -0.107,0.981 -0.893,1.725 -1.84,1.813 m 24.176,4.434 c -0.059,0.005 -0.12,0.004 -0.182,-0.002 -0.489,-0.054 -0.843,-0.495 -0.789,-0.986 0.053,-0.491 0.494,-0.845 0.985,-0.791 0.491,0.053 0.846,0.495 0.792,0.985 -0.048,0.43 -0.392,0.755 -0.806,0.794 m -19.919,0.2 c -0.161,0.015 -0.325,0.014 -0.491,-0.004 -1.332,-0.146 -2.294,-1.345 -2.149,-2.677 0.146,-1.332 1.345,-2.294 2.677,-2.148 1.332,0.146 2.294,1.343 2.148,2.675 -0.127,1.166 -1.061,2.049 -2.185,2.154 m 16.907,2.262 c -0.085,0.008 -0.172,0.007 -0.261,-0.002 -0.699,-0.077 -1.205,-0.708 -1.129,-1.409 0.077,-0.701 0.708,-1.207 1.409,-1.13 0.702,0.076 1.207,0.706 1.13,1.408 -0.066,0.613 -0.557,1.078 -1.149,1.133 m -13.119,1.882 c -0.26,0.017 -0.53,-0.014 -0.797,-0.1 l -0.102,-0.036 c -1.085,-0.413 -1.659,-1.613 -1.276,-2.673 0.366,-1.026 1.488,-1.557 2.552,-1.213 l 0.105,0.037 c 1.085,0.414 1.658,1.613 1.277,2.673 -0.277,0.767 -0.977,1.259 -1.759,1.312 m 9.387,0.689 c -0.32,-0.019 -0.636,-0.13 -0.91,-0.34 -0.728,-0.555 -0.869,-1.597 -0.311,-2.326 0.556,-0.728 1.599,-0.867 2.326,-0.311 0.729,0.556 0.867,1.598 0.312,2.328 -0.348,0.455 -0.885,0.68 -1.417,0.649 m -4.461,0.895 c -0.114,0.011 -0.23,0.01 -0.348,-0.003 -0.943,-0.103 -1.624,-0.952 -1.521,-1.894 0.103,-0.942 0.952,-1.623 1.895,-1.52 0.943,0.102 1.623,0.951 1.52,1.893 -0.09,0.825 -0.751,1.45 -1.546,1.524" />
      </g>
    </g>
  </g>
</svg>
